<svg width="40" height="40" viewBox="0 0 40 40" fill="none" xmlns="http://www.w3.org/2000/svg">
<path d="M20 40C31.0457 40 40 31.0457 40 20C40 8.9543 31.0457 0 20 0C8.9543 0 0 8.9543 0 20C0 31.0457 8.9543 40 20 40Z" fill="#3B4750"/>
<path d="M29.0757 26.1777V25.9352C29.0757 24.3202 30.385 23.0109 32 23.0109M8.85625 16.4063C8.51626 16.038 8.26539 15.5847 8.12584 15.0863C7.98629 14.588 7.96239 14.0601 8.05622 13.5494C8.15005 13.0387 8.35874 12.5609 8.66382 12.1583C8.96888 11.7558 9.36089 11.4409 9.80515 11.2416C10.2494 11.0423 10.7322 10.9648 11.2107 11.0158C11.6893 11.0668 12.1489 11.2448 12.5487 11.5341C12.9485 11.8233 13.2763 12.2149 13.5031 12.6741C13.7298 13.1333 13.8485 13.646 13.8486 14.1667M13.8486 14.1667V26.8338M13.8486 14.1667C13.8486 13.3268 14.1566 12.5213 14.7051 11.9275C15.2535 11.3336 15.9973 11 16.7728 11C17.5484 11 18.2922 11.3336 18.8405 11.9275C19.3889 12.5214 19.6971 13.3269 19.6971 14.1667M19.6971 14.1667V26.8338M19.6971 14.1667C19.6971 13.3268 20.0051 12.5213 20.5535 11.9275C21.102 11.3336 21.8457 11 22.6214 11C23.3969 11 24.1407 11.3336 24.6891 11.9275C25.2376 12.5214 25.5457 13.3269 25.5457 14.1667V26.8338C25.5458 27.3545 25.6644 27.8673 25.8911 28.3264C26.1179 28.7857 26.4457 29.1772 26.8456 29.4665C27.2454 29.7557 27.705 29.9338 28.1835 29.9847C28.6621 30.0358 29.1449 29.9582 29.5891 29.7589C30.0334 29.5597 30.4254 29.2448 30.7305 28.8422C31.0356 28.4397 31.2442 27.9619 31.3381 27.4512C31.4319 26.9405 31.408 26.4126 31.2684 25.9142C31.1289 25.416 30.8781 24.9626 30.5381 24.5943L29.3683 23.3275" stroke="#81BCE7" stroke-width="1.5" stroke-linecap="round" stroke-linejoin="round"/>
</svg>
