<svg width="335" height="210" viewBox="0 0 335 210" fill="none" xmlns="http://www.w3.org/2000/svg">
<g clip-path="url(#clip0_130_2849)">
<rect width="335" height="209.807" rx="10.3608" fill="#9726F2"/>
<circle cx="88.067" cy="-76.8428" r="271.972" fill="#9726F2"/>
<circle cx="68.2088" cy="-31.0827" r="183.905" fill="#9726F2"/>
<circle cx="14.6778" cy="-18.1312" r="94.9742" fill="#9726F2"/>
<path d="M23.1702 27.8802H20.0168L19.9999 26.1433H22.6474C23.114 26.1433 23.4962 26.0843 23.7941 25.9662C24.0921 25.8426 24.3141 25.6655 24.4602 25.4351C24.612 25.199 24.6879 24.9123 24.6879 24.575C24.6879 24.1928 24.6148 23.8836 24.4687 23.6475C24.3281 23.4115 24.1061 23.24 23.8026 23.1332C23.5047 23.0264 23.1196 22.973 22.6474 22.973H20.8937V33.2681H18.3642V20.9916H22.6474C23.3613 20.9916 23.9993 21.059 24.5614 21.1939C25.1292 21.3288 25.6098 21.534 26.0032 21.8094C26.3967 22.0849 26.6974 22.4334 26.9054 22.855C27.1134 23.2709 27.2174 23.7656 27.2174 24.3389C27.2174 24.8448 27.1022 25.3114 26.8717 25.7386C26.6469 26.1658 26.2899 26.5143 25.8009 26.7841C25.3175 27.0539 24.6851 27.2029 23.9038 27.231L23.1702 27.8802ZM23.0606 33.2681H19.3254L20.3119 31.2951H23.0606C23.5047 31.2951 23.8672 31.2248 24.1483 31.0843C24.4293 30.9381 24.6373 30.7414 24.7722 30.494C24.9071 30.2467 24.9746 29.9629 24.9746 29.6425C24.9746 29.2827 24.9127 28.9707 24.7891 28.7065C24.671 28.4423 24.4799 28.24 24.2157 28.0995C23.9515 27.9533 23.603 27.8802 23.1702 27.8802H20.7334L20.7503 26.1433H23.7857L24.3675 26.8263C25.1151 26.815 25.7166 26.9471 26.1719 27.2226C26.6328 27.4924 26.9673 27.8437 27.1752 28.2765C27.3888 28.7093 27.4956 29.1731 27.4956 29.6677C27.4956 30.4547 27.3242 31.118 26.9813 31.6576C26.6384 32.1916 26.1353 32.5935 25.472 32.8633C24.8144 33.1332 24.0106 33.2681 23.0606 33.2681ZM34.3843 23.0911L31.0454 33.2681H28.3557L32.9172 20.9916H34.6288L34.3843 23.0911ZM37.1583 33.2681L33.811 23.0911L33.5411 20.9916H35.2696L39.8565 33.2681H37.1583ZM37.0066 28.6981V30.6795H30.5226V28.6981H37.0066ZM50.9862 20.9916V33.2681H48.4567L43.5242 25.0388V33.2681H40.9947V20.9916H43.5242L48.4652 29.2293V20.9916H50.9862ZM55.7164 20.9916V33.2681H53.1869V20.9916H55.7164ZM63.0688 20.9916L58.2038 27.0539L55.396 30.0725L54.9407 27.6779L56.8378 25.0809L59.966 20.9916H63.0688ZM60.1936 33.2681L56.5764 27.5936L58.4483 26.0253L63.1869 33.2681H60.1936ZM78.4566 20.9916V33.2681H75.9271L70.9946 25.0388V33.2681H68.4651V20.9916H70.9946L75.9355 29.2293V20.9916H78.4566ZM85.8006 23.0911L82.4616 33.2681H79.7719L84.3335 20.9916H86.0451L85.8006 23.0911ZM88.5746 33.2681L85.2272 23.0911L84.9574 20.9916H86.6859L91.2727 33.2681H88.5746ZM88.4228 28.6981V30.6795H81.9389V28.6981H88.4228ZM93.5661 20.9916H95.7078L98.8612 30.005L102.015 20.9916H104.156L99.7212 33.2681H98.0012L93.5661 20.9916ZM92.411 20.9916H94.5442L94.9321 29.7774V33.2681H92.411V20.9916ZM103.178 20.9916H105.32V33.2681H102.79V29.7774L103.178 20.9916ZM115.775 31.2951V33.2681H109.241V31.2951H115.775ZM110.067 20.9916V33.2681H107.537V20.9916H110.067ZM114.924 25.9915V27.914H109.241V25.9915H114.924ZM115.767 20.9916V22.973H109.241V20.9916H115.767Z" fill="white"/>
<path d="M254.917 28.5354H256.051C255.992 29.0784 255.836 29.5643 255.584 29.9932C255.333 30.4221 254.976 30.7624 254.516 31.0143C254.056 31.2622 253.481 31.3861 252.793 31.3861C252.289 31.3861 251.831 31.2917 251.417 31.1028C251.008 30.9139 250.656 30.6464 250.361 30.3001C250.066 29.9499 249.838 29.5309 249.676 29.043C249.519 28.5511 249.44 28.0042 249.44 27.4021V26.5463C249.44 25.9443 249.519 25.3993 249.676 24.9114C249.838 24.4196 250.068 23.9986 250.367 23.6484C250.67 23.2982 251.034 23.0286 251.459 22.8398C251.884 22.6509 252.362 22.5565 252.893 22.5565C253.542 22.5565 254.091 22.6785 254.54 22.9224C254.988 23.1664 255.336 23.5048 255.584 23.9376C255.836 24.3665 255.992 24.8642 256.051 25.4308H254.917C254.862 25.0295 254.76 24.6852 254.61 24.3979C254.461 24.1068 254.248 23.8825 253.973 23.7251C253.698 23.5677 253.338 23.489 252.893 23.489C252.511 23.489 252.175 23.5618 251.884 23.7074C251.596 23.853 251.354 24.0596 251.158 24.3271C250.965 24.5947 250.819 24.9154 250.721 25.2892C250.623 25.663 250.573 26.0781 250.573 26.5345V27.4021C250.573 27.8232 250.617 28.2186 250.703 28.5885C250.794 28.9584 250.93 29.283 251.111 29.5623C251.292 29.8417 251.522 30.0621 251.801 30.2234C252.08 30.3808 252.411 30.4595 252.793 30.4595C253.277 30.4595 253.662 30.3827 253.949 30.2293C254.237 30.0758 254.453 29.8555 254.599 29.5682C254.748 29.281 254.854 28.9367 254.917 28.5354ZM260.784 23.4359L257.939 31.2681H256.777L260.052 22.6745H260.802L260.784 23.4359ZM263.169 31.2681L260.318 23.4359L260.3 22.6745H261.05L264.337 31.2681H263.169ZM263.021 28.0868V29.0193H258.193V28.0868H263.021ZM265.488 22.6745H268.333C268.978 22.6745 269.523 22.7729 269.968 22.9696C270.416 23.1664 270.757 23.4575 270.989 23.8431C271.225 24.2248 271.343 24.695 271.343 25.2538C271.343 25.6472 271.262 26.0073 271.101 26.3339C270.944 26.6565 270.716 26.9319 270.416 27.1602C270.121 27.3844 269.767 27.5517 269.354 27.6618L269.035 27.7858H266.362L266.35 26.8592H268.368C268.778 26.8592 269.118 26.7883 269.39 26.6467C269.661 26.5011 269.866 26.3063 270.003 26.0624C270.141 25.8184 270.21 25.5489 270.21 25.2538C270.21 24.9232 270.145 24.634 270.015 24.3861C269.885 24.1383 269.681 23.9474 269.401 23.8136C269.126 23.6759 268.77 23.6071 268.333 23.6071H266.627V31.2681H265.488V22.6745ZM270.511 31.2681L268.422 27.3726L269.608 27.3667L271.727 31.1972V31.2681H270.511ZM275.262 31.2681H273.468L273.48 30.3414H275.262C275.876 30.3414 276.388 30.2135 276.797 29.9578C277.206 29.6981 277.513 29.3361 277.717 28.8718C277.926 28.4036 278.03 27.8566 278.03 27.231V26.7057C278.03 26.2138 277.971 25.7771 277.853 25.3954C277.735 25.0098 277.562 24.6852 277.334 24.4216C277.106 24.154 276.826 23.9514 276.496 23.8136C276.169 23.6759 275.793 23.6071 275.368 23.6071H273.432V22.6745H275.368C275.931 22.6745 276.445 22.769 276.909 22.9578C277.373 23.1428 277.773 23.4123 278.107 23.7664C278.445 24.1166 278.705 24.5416 278.886 25.0413C279.067 25.5371 279.158 26.0958 279.158 26.7175V27.231C279.158 27.8527 279.067 28.4134 278.886 28.9131C278.705 29.4089 278.443 29.8319 278.101 30.1821C277.763 30.5323 277.353 30.8018 276.873 30.9907C276.397 31.1756 275.86 31.2681 275.262 31.2681ZM274.076 22.6745V31.2681H272.937V22.6745H274.076ZM290.478 22.6745V31.2681H289.333L285.007 24.6399V31.2681H283.868V22.6745H285.007L289.351 29.3204V22.6745H290.478ZM295.784 23.4359L292.939 31.2681H291.776L295.052 22.6745H295.802L295.784 23.4359ZM298.168 31.2681L295.318 23.4359L295.3 22.6745H296.05L299.337 31.2681H298.168ZM298.021 28.0868V29.0193H293.193V28.0868H298.021ZM300.848 22.6745H301.952L304.767 29.6804L307.576 22.6745H308.686L305.192 31.2681H304.33L300.848 22.6745ZM300.488 22.6745H301.462L301.621 27.9156V31.2681H300.488V22.6745ZM308.066 22.6745H309.04V31.2681H307.907V27.9156L308.066 22.6745ZM316.501 30.3414V31.2681H311.95V30.3414H316.501ZM312.18 22.6745V31.2681H311.041V22.6745H312.18ZM315.899 26.3693V27.2959H311.95V26.3693H315.899ZM316.442 22.6745V23.6071H311.95V22.6745H316.442Z" fill="white"/>
<g clip-path="url(#clip1_130_2849)">
<path d="M51.1145 95.1822H19.6149C18.3213 95.1822 17.268 94.1289 17.268 92.8282V69.3308C17.268 68.0371 18.3213 66.9839 19.6149 66.9839H51.1074C52.4081 66.9839 53.4614 68.0371 53.4614 69.3308V92.8282C53.4614 94.1289 52.4082 95.1822 51.1145 95.1822Z" fill="#FFC738"/>
<path d="M51.1146 66.9834H35.3647V95.1817H51.1145C52.4152 95.1817 53.4614 94.1285 53.4614 92.8348V69.3304C53.4614 68.0367 52.4082 66.9834 51.1146 66.9834Z" fill="#FFB42E"/>
<path d="M53.4614 81.5668V80.5984H40.8149V76.3217L44.0809 73.0558H53.4614C53.4614 72.7235 53.4261 72.3983 53.3696 72.0873H43.8759C43.7486 72.0873 43.6214 72.1439 43.5365 72.2358L40.1293 75.636H35.8525V66.9834H34.8841V75.6288H30.6568L27.2566 72.2286C27.1647 72.1367 27.0374 72.0801 26.9102 72.0801H17.367C17.3104 72.3983 17.2751 72.7234 17.2751 73.0486H26.7123L29.9145 76.2509V80.5842H17.268V81.5526H29.9145V85.8859L26.7123 89.1094H17.2751C17.2751 89.4416 17.3105 89.7668 17.367 90.0778H26.9173C27.0445 90.0778 27.1718 90.0212 27.2636 89.9294L30.6639 86.5292H34.8911V95.1745H35.8596V86.5293H40.1363L43.5436 89.9295C43.6284 90.0214 43.7557 90.0779 43.8829 90.0779H53.3766C53.4332 89.7598 53.4685 89.4347 53.4685 89.1095H44.0738L40.8079 85.8436V81.5668H53.4614ZM39.8465 85.5608H30.883V76.5973H39.8394V85.5608H39.8465Z" fill="#C66D4E"/>
<path d="M53.4615 81.5668V80.5984H40.815V76.3217L44.0809 73.0558H53.4615C53.4615 72.7235 53.4261 72.3983 53.3696 72.0873H43.8759C43.7486 72.0873 43.6214 72.1439 43.5365 72.2358L40.1293 75.636H35.8525V66.9834H35.3648V76.5972H39.8466V85.5608H35.3648V95.1747H35.8525V86.5293H40.1293L43.5365 89.9295C43.6214 90.0214 43.7486 90.0779 43.8759 90.0779H53.3696C53.4261 89.7598 53.4615 89.4417 53.4615 89.1095H44.0738L40.8079 85.8436V81.5668H53.4615Z" fill="#AF5A35"/>
</g>
<g clip-path="url(#clip2_130_2849)">
<path d="M304.781 81.0889C304.781 79.3281 304.095 77.6716 302.85 76.4272C302.361 75.9383 301.569 75.9383 301.081 76.4272C300.592 76.9157 300.592 77.7073 301.081 78.1962C301.854 78.9681 302.279 79.9957 302.279 81.0889C302.279 82.1822 301.854 83.2099 301.081 83.9817C300.964 84.0979 300.872 84.2358 300.809 84.3876C300.746 84.5394 300.714 84.7021 300.714 84.8664C300.714 85.1873 300.836 85.5065 301.081 85.7507C301.569 86.2396 302.361 86.2396 302.85 85.7507C304.095 84.5063 304.781 82.8498 304.781 81.0889Z" fill="#FEFEFE"/>
<path d="M300.389 81.089C300.389 79.9776 299.956 78.932 299.169 78.1465C298.861 77.8379 298.361 77.8379 298.053 78.1465C297.744 78.4548 297.744 78.9545 298.053 79.2631C298.541 79.7503 298.809 80.399 298.809 81.089C298.809 81.7791 298.541 82.4278 298.053 82.915C297.979 82.9883 297.921 83.0753 297.882 83.1711C297.842 83.267 297.822 83.3697 297.822 83.4734C297.822 83.6759 297.899 83.8774 298.053 84.0316C298.361 84.3402 298.861 84.3402 299.169 84.0316C299.956 83.2461 300.389 82.2005 300.389 81.089Z" fill="#FEFEFE"/>
<path d="M308.901 81.089C308.901 78.2273 307.786 75.537 305.763 73.5138C305.274 73.0253 304.482 73.0253 303.994 73.5138C303.505 74.0026 303.505 74.7947 303.994 75.2828C305.545 76.8334 306.399 78.8957 306.399 81.0889C306.399 83.2813 305.545 85.3436 303.994 86.8943C303.877 87.0103 303.785 87.1481 303.722 87.2999C303.659 87.4516 303.627 87.6143 303.627 87.7786C303.627 88.0995 303.749 88.4191 303.994 88.6633C304.482 89.1518 305.274 89.1518 305.763 88.6633C307.786 86.6401 308.901 83.9507 308.901 81.089Z" fill="#FEFEFE"/>
<path d="M308.682 91.5832C311.485 88.7805 313.029 85.0539 313.029 81.0891C313.029 77.1242 311.485 73.3976 308.682 70.5949C308.193 70.1064 307.401 70.1064 306.913 70.5949C306.796 70.7109 306.704 70.8489 306.641 71.0007C306.578 71.1525 306.546 71.3152 306.546 71.4796C306.546 71.7996 306.668 72.1205 306.913 72.3639C309.244 74.6941 310.527 77.7932 310.527 81.0891C310.527 84.385 309.244 87.4832 306.913 89.8134C306.424 90.3018 306.424 91.0935 306.912 91.5824C307.401 92.0708 308.193 92.0708 308.682 91.5832Z" fill="#FEFEFE"/>
</g>
<path d="M24.6441 115.594V130.407H22.7722V117.932L18.9982 119.308V117.618L24.3506 115.594H24.6441ZM43.1163 128.869V130.407H33.4738V129.062L38.3001 123.689C38.8937 123.028 39.3524 122.468 39.6762 122.009C40.0067 121.544 40.236 121.129 40.3642 120.765C40.4991 120.394 40.5665 120.016 40.5665 119.632C40.5665 119.146 40.4654 118.707 40.263 118.316C40.0674 117.918 39.7773 117.601 39.3928 117.365C39.0084 117.129 38.5429 117.011 37.9966 117.011C37.3423 117.011 36.7959 117.139 36.3575 117.395C35.9257 117.645 35.602 117.996 35.3861 118.448C35.1703 118.9 35.0623 119.419 35.0623 120.006H33.1905C33.1905 119.176 33.3726 118.417 33.7369 117.729C34.1011 117.041 34.6408 116.495 35.3558 116.09C36.0708 115.679 36.951 115.473 37.9966 115.473C38.9274 115.473 39.7234 115.638 40.3844 115.969C41.0455 116.293 41.5514 116.751 41.9021 117.345C42.2596 117.932 42.4384 118.62 42.4384 119.409C42.4384 119.841 42.3642 120.279 42.2158 120.724C42.0741 121.163 41.8751 121.601 41.6188 122.04C41.3692 122.478 41.0758 122.91 40.7385 123.335C40.408 123.76 40.0539 124.178 39.6762 124.589L35.7301 128.869H43.1163ZM51.167 122.121H52.5025C53.1568 122.121 53.6965 122.013 54.1214 121.797C54.5531 121.574 54.8735 121.274 55.0826 120.896C55.2985 120.512 55.4064 120.08 55.4064 119.601C55.4064 119.035 55.312 118.559 55.1231 118.175C54.9342 117.79 54.6509 117.5 54.2732 117.304C53.8954 117.109 53.4165 117.011 52.8364 117.011C52.3103 117.011 51.8449 117.116 51.4401 117.325C51.0422 117.527 50.7285 117.817 50.4992 118.195C50.2766 118.573 50.1653 119.018 50.1653 119.53H48.2934C48.2934 118.782 48.4823 118.1 48.8601 117.487C49.2378 116.873 49.7673 116.384 50.4486 116.019C51.1366 115.655 51.9325 115.473 52.8364 115.473C53.7268 115.473 54.5059 115.632 55.1737 115.949C55.8415 116.259 56.3609 116.724 56.7319 117.345C57.1028 117.959 57.2883 118.724 57.2883 119.642C57.2883 120.013 57.2007 120.411 57.0253 120.836C56.8566 121.254 56.5902 121.645 56.226 122.009C55.8684 122.374 55.403 122.674 54.8297 122.91C54.2563 123.139 53.5683 123.254 52.7656 123.254H51.167V122.121ZM51.167 123.659V122.535H52.7656C53.7032 122.535 54.4789 122.647 55.0927 122.869C55.7066 123.092 56.1889 123.389 56.5396 123.76C56.8971 124.131 57.1467 124.539 57.2883 124.984C57.4367 125.422 57.5109 125.861 57.5109 126.299C57.5109 126.987 57.3929 127.598 57.1568 128.131C56.9275 128.664 56.6003 129.115 56.1754 129.486C55.7572 129.857 55.2647 130.137 54.6981 130.326C54.1315 130.515 53.5143 130.61 52.8465 130.61C52.2057 130.61 51.602 130.519 51.0354 130.336C50.4756 130.154 49.9798 129.891 49.5481 129.547C49.1164 129.196 48.7791 128.768 48.5363 128.262C48.2934 127.75 48.172 127.166 48.172 126.512H50.0439C50.0439 127.024 50.1552 127.473 50.3778 127.857C50.6071 128.242 50.9309 128.542 51.3491 128.758C51.774 128.967 52.2732 129.072 52.8465 129.072C53.4199 129.072 53.9123 128.974 54.3238 128.778C54.742 128.576 55.0624 128.272 55.285 127.868C55.5143 127.463 55.629 126.954 55.629 126.34C55.629 125.726 55.5008 125.223 55.2445 124.832C54.9882 124.434 54.6239 124.141 54.1518 123.952C53.6863 123.756 53.1366 123.659 52.5025 123.659H51.167ZM73.3626 125.449V126.987H62.7185V125.884L69.3154 115.675H70.8432L69.2041 118.63L64.8432 125.449H73.3626ZM71.3086 115.675V130.407H69.4368V115.675H71.3086ZM89.2009 123.395L87.7034 123.011L88.442 115.675H96.0002V117.406H90.0306L89.5854 121.412C89.8552 121.257 90.1958 121.112 90.6073 120.977C91.0255 120.842 91.5044 120.775 92.0441 120.775C92.7253 120.775 93.3358 120.893 93.8754 121.129C94.415 121.358 94.8737 121.689 95.2515 122.121C95.6359 122.552 95.9294 123.072 96.1317 123.679C96.3341 124.286 96.4353 124.964 96.4353 125.712C96.4353 126.421 96.3375 127.072 96.1418 127.665C95.953 128.259 95.6663 128.778 95.2818 129.223C94.8973 129.662 94.4117 130.003 93.8248 130.245C93.2447 130.488 92.5601 130.61 91.7709 130.61C91.1773 130.61 90.614 130.529 90.0812 130.367C89.555 130.198 89.0829 129.945 88.6646 129.608C88.2532 129.264 87.9159 128.839 87.6528 128.333C87.3965 127.82 87.2346 127.22 87.1672 126.532H88.9479C89.0289 127.085 89.1908 127.551 89.4336 127.928C89.6764 128.306 89.9935 128.593 90.3847 128.788C90.7827 128.977 91.2447 129.072 91.7709 129.072C92.2161 129.072 92.6107 128.994 92.9547 128.839C93.2987 128.684 93.5887 128.461 93.8248 128.171C94.0609 127.881 94.2397 127.53 94.3611 127.119C94.4892 126.707 94.5533 126.245 94.5533 125.733C94.5533 125.267 94.4892 124.836 94.3611 124.438C94.2329 124.04 94.0407 123.692 93.7843 123.395C93.5348 123.099 93.2279 122.869 92.8636 122.707C92.4994 122.539 92.0812 122.454 91.609 122.454C90.9817 122.454 90.5061 122.539 90.1823 122.707C89.8653 122.876 89.5382 123.105 89.2009 123.395ZM108.988 115.655H109.15V117.244H108.988C107.997 117.244 107.167 117.406 106.499 117.729C105.832 118.046 105.302 118.475 104.911 119.014C104.52 119.547 104.236 120.148 104.061 120.815C103.892 121.483 103.808 122.161 103.808 122.849V125.014C103.808 125.669 103.886 126.249 104.041 126.755C104.196 127.254 104.408 127.675 104.678 128.019C104.948 128.363 105.252 128.623 105.589 128.798C105.933 128.974 106.29 129.062 106.661 129.062C107.093 129.062 107.477 128.981 107.815 128.819C108.152 128.65 108.435 128.417 108.665 128.121C108.901 127.817 109.08 127.46 109.201 127.048C109.322 126.637 109.383 126.185 109.383 125.692C109.383 125.254 109.329 124.832 109.221 124.427C109.113 124.016 108.948 123.652 108.725 123.335C108.503 123.011 108.223 122.758 107.886 122.576C107.555 122.387 107.16 122.293 106.702 122.293C106.182 122.293 105.697 122.421 105.245 122.677C104.8 122.927 104.432 123.257 104.142 123.669C103.859 124.073 103.697 124.515 103.656 124.994L102.665 124.984C102.759 124.229 102.935 123.584 103.191 123.051C103.454 122.512 103.778 122.073 104.162 121.736C104.553 121.392 104.988 121.143 105.467 120.987C105.953 120.825 106.466 120.745 107.005 120.745C107.741 120.745 108.375 120.883 108.908 121.159C109.44 121.436 109.879 121.807 110.223 122.272C110.567 122.731 110.82 123.25 110.982 123.831C111.15 124.404 111.235 124.994 111.235 125.601C111.235 126.296 111.137 126.947 110.941 127.554C110.746 128.161 110.452 128.694 110.061 129.153C109.676 129.611 109.201 129.969 108.634 130.225C108.068 130.481 107.41 130.61 106.661 130.61C105.865 130.61 105.171 130.448 104.577 130.124C103.983 129.793 103.491 129.355 103.1 128.809C102.709 128.262 102.415 127.655 102.22 126.987C102.024 126.32 101.926 125.642 101.926 124.954V124.073C101.926 123.035 102.031 122.016 102.24 121.018C102.449 120.019 102.81 119.116 103.322 118.306C103.842 117.497 104.56 116.852 105.478 116.374C106.395 115.895 107.565 115.655 108.988 115.655ZM126.297 115.675V116.728L120.196 130.407H118.223L124.314 117.213H116.341V115.675H126.297ZM141.036 126.421C141.036 127.318 140.827 128.08 140.408 128.707C139.997 129.328 139.437 129.8 138.729 130.124C138.027 130.448 137.235 130.61 136.351 130.61C135.468 130.61 134.672 130.448 133.963 130.124C133.255 129.8 132.695 129.328 132.284 128.707C131.872 128.08 131.667 127.318 131.667 126.421C131.667 125.834 131.778 125.298 132 124.812C132.23 124.32 132.55 123.891 132.962 123.527C133.38 123.163 133.872 122.883 134.439 122.687C135.012 122.485 135.643 122.384 136.331 122.384C137.235 122.384 138.041 122.559 138.749 122.91C139.457 123.254 140.014 123.729 140.419 124.336C140.83 124.944 141.036 125.638 141.036 126.421ZM139.154 126.38C139.154 125.834 139.036 125.352 138.8 124.933C138.564 124.508 138.233 124.178 137.808 123.942C137.383 123.706 136.891 123.588 136.331 123.588C135.758 123.588 135.262 123.706 134.844 123.942C134.432 124.178 134.112 124.508 133.882 124.933C133.653 125.352 133.538 125.834 133.538 126.38C133.538 126.947 133.65 127.433 133.872 127.837C134.102 128.235 134.425 128.542 134.844 128.758C135.269 128.967 135.771 129.072 136.351 129.072C136.931 129.072 137.43 128.967 137.849 128.758C138.267 128.542 138.587 128.235 138.81 127.837C139.039 127.433 139.154 126.947 139.154 126.38ZM140.692 119.51C140.692 120.225 140.503 120.869 140.125 121.443C139.747 122.016 139.231 122.468 138.577 122.798C137.923 123.129 137.181 123.294 136.351 123.294C135.508 123.294 134.756 123.129 134.095 122.798C133.441 122.468 132.928 122.016 132.557 121.443C132.186 120.869 132 120.225 132 119.51C132 118.653 132.186 117.925 132.557 117.325C132.935 116.724 133.451 116.266 134.105 115.949C134.759 115.632 135.505 115.473 136.341 115.473C137.184 115.473 137.933 115.632 138.587 115.949C139.242 116.266 139.754 116.724 140.125 117.325C140.503 117.925 140.692 118.653 140.692 119.51ZM138.82 119.541C138.82 119.048 138.715 118.613 138.506 118.235C138.297 117.858 138.007 117.561 137.636 117.345C137.265 117.122 136.833 117.011 136.341 117.011C135.849 117.011 135.417 117.116 135.046 117.325C134.682 117.527 134.395 117.817 134.186 118.195C133.984 118.573 133.882 119.021 133.882 119.541C133.882 120.046 133.984 120.488 134.186 120.866C134.395 121.244 134.685 121.537 135.056 121.746C135.427 121.955 135.859 122.06 136.351 122.06C136.844 122.06 137.272 121.955 137.636 121.746C138.007 121.537 138.297 121.244 138.506 120.866C138.715 120.488 138.82 120.046 138.82 119.541ZM161.326 115.594V130.407H159.454V117.932L155.68 119.308V117.618L161.033 115.594H161.326ZM179.798 128.869V130.407H170.156V129.062L174.982 123.689C175.576 123.028 176.034 122.468 176.358 122.009C176.689 121.544 176.918 121.129 177.046 120.765C177.181 120.394 177.248 120.016 177.248 119.632C177.248 119.146 177.147 118.707 176.945 118.316C176.749 117.918 176.459 117.601 176.075 117.365C175.69 117.129 175.225 117.011 174.679 117.011C174.024 117.011 173.478 117.139 173.039 117.395C172.608 117.645 172.284 117.996 172.068 118.448C171.852 118.9 171.744 119.419 171.744 120.006H169.872C169.872 119.176 170.055 118.417 170.419 117.729C170.783 117.041 171.323 116.495 172.038 116.09C172.753 115.679 173.633 115.473 174.679 115.473C175.609 115.473 176.405 115.638 177.066 115.969C177.727 116.293 178.233 116.751 178.584 117.345C178.942 117.932 179.12 118.62 179.12 119.409C179.12 119.841 179.046 120.279 178.898 120.724C178.756 121.163 178.557 121.601 178.301 122.04C178.051 122.478 177.758 122.91 177.42 123.335C177.09 123.76 176.736 124.178 176.358 124.589L172.412 128.869H179.798ZM187.849 122.121H189.184C189.839 122.121 190.378 122.013 190.803 121.797C191.235 121.574 191.555 121.274 191.765 120.896C191.98 120.512 192.088 120.08 192.088 119.601C192.088 119.035 191.994 118.559 191.805 118.175C191.616 117.79 191.333 117.5 190.955 117.304C190.577 117.109 190.098 117.011 189.518 117.011C188.992 117.011 188.527 117.116 188.122 117.325C187.724 117.527 187.41 117.817 187.181 118.195C186.959 118.573 186.847 119.018 186.847 119.53H184.975C184.975 118.782 185.164 118.1 185.542 117.487C185.92 116.873 186.449 116.384 187.131 116.019C187.819 115.655 188.614 115.473 189.518 115.473C190.409 115.473 191.188 115.632 191.856 115.949C192.523 116.259 193.043 116.724 193.414 117.345C193.785 117.959 193.97 118.724 193.97 119.642C193.97 120.013 193.883 120.411 193.707 120.836C193.539 121.254 193.272 121.645 192.908 122.009C192.55 122.374 192.085 122.674 191.512 122.91C190.938 123.139 190.25 123.254 189.448 123.254H187.849V122.121ZM187.849 123.659V122.535H189.448C190.385 122.535 191.161 122.647 191.775 122.869C192.389 123.092 192.871 123.389 193.222 123.76C193.579 124.131 193.829 124.539 193.97 124.984C194.119 125.422 194.193 125.861 194.193 126.299C194.193 126.987 194.075 127.598 193.839 128.131C193.609 128.664 193.282 129.115 192.857 129.486C192.439 129.857 191.947 130.137 191.38 130.326C190.813 130.515 190.196 130.61 189.528 130.61C188.888 130.61 188.284 130.519 187.717 130.336C187.158 130.154 186.662 129.891 186.23 129.547C185.798 129.196 185.461 128.768 185.218 128.262C184.975 127.75 184.854 127.166 184.854 126.512H186.726C186.726 127.024 186.837 127.473 187.06 127.857C187.289 128.242 187.613 128.542 188.031 128.758C188.456 128.967 188.955 129.072 189.528 129.072C190.102 129.072 190.594 128.974 191.006 128.778C191.424 128.576 191.744 128.272 191.967 127.868C192.196 127.463 192.311 126.954 192.311 126.34C192.311 125.726 192.183 125.223 191.926 124.832C191.67 124.434 191.306 124.141 190.834 123.952C190.368 123.756 189.819 123.659 189.184 123.659H187.849ZM210.045 125.449V126.987H199.4V125.884L205.997 115.675H207.525L205.886 118.63L201.525 125.449H210.045ZM207.991 115.675V130.407H206.119V115.675H207.991ZM225.883 123.395L224.385 123.011L225.124 115.675H232.682V117.406H226.713L226.267 121.412C226.537 121.257 226.878 121.112 227.289 120.977C227.707 120.842 228.186 120.775 228.726 120.775C229.407 120.775 230.018 120.893 230.557 121.129C231.097 121.358 231.556 121.689 231.933 122.121C232.318 122.552 232.611 123.072 232.814 123.679C233.016 124.286 233.117 124.964 233.117 125.712C233.117 126.421 233.019 127.072 232.824 127.665C232.635 128.259 232.348 128.778 231.964 129.223C231.579 129.662 231.094 130.003 230.507 130.245C229.927 130.488 229.242 130.61 228.453 130.61C227.859 130.61 227.296 130.529 226.763 130.367C226.237 130.198 225.765 129.945 225.347 129.608C224.935 129.264 224.598 128.839 224.335 128.333C224.078 127.82 223.917 127.22 223.849 126.532H225.63C225.711 127.085 225.873 127.551 226.116 127.928C226.358 128.306 226.675 128.593 227.067 128.788C227.465 128.977 227.927 129.072 228.453 129.072C228.898 129.072 229.293 128.994 229.637 128.839C229.981 128.684 230.271 128.461 230.507 128.171C230.743 127.881 230.922 127.53 231.043 127.119C231.171 126.707 231.235 126.245 231.235 125.733C231.235 125.267 231.171 124.836 231.043 124.438C230.915 124.04 230.723 123.692 230.466 123.395C230.217 123.099 229.91 122.869 229.546 122.707C229.181 122.539 228.763 122.454 228.291 122.454C227.664 122.454 227.188 122.539 226.864 122.707C226.547 122.876 226.22 123.105 225.883 123.395ZM245.67 115.655H245.832V117.244H245.67C244.679 117.244 243.849 117.406 243.181 117.729C242.514 118.046 241.984 118.475 241.593 119.014C241.202 119.547 240.918 120.148 240.743 120.815C240.574 121.483 240.49 122.161 240.49 122.849V125.014C240.49 125.669 240.568 126.249 240.723 126.755C240.878 127.254 241.09 127.675 241.36 128.019C241.63 128.363 241.933 128.623 242.271 128.798C242.615 128.974 242.972 129.062 243.343 129.062C243.775 129.062 244.159 128.981 244.497 128.819C244.834 128.65 245.117 128.417 245.347 128.121C245.583 127.817 245.761 127.46 245.883 127.048C246.004 126.637 246.065 126.185 246.065 125.692C246.065 125.254 246.011 124.832 245.903 124.427C245.795 124.016 245.63 123.652 245.407 123.335C245.185 123.011 244.905 122.758 244.568 122.576C244.237 122.387 243.842 122.293 243.384 122.293C242.864 122.293 242.379 122.421 241.927 122.677C241.482 122.927 241.114 123.257 240.824 123.669C240.541 124.073 240.379 124.515 240.338 124.994L239.347 124.984C239.441 124.229 239.616 123.584 239.873 123.051C240.136 122.512 240.46 122.073 240.844 121.736C241.235 121.392 241.67 121.143 242.149 120.987C242.635 120.825 243.148 120.745 243.687 120.745C244.422 120.745 245.057 120.883 245.589 121.159C246.122 121.436 246.561 121.807 246.905 122.272C247.249 122.731 247.502 123.25 247.664 123.831C247.832 124.404 247.917 124.994 247.917 125.601C247.917 126.296 247.819 126.947 247.623 127.554C247.428 128.161 247.134 128.694 246.743 129.153C246.358 129.611 245.883 129.969 245.316 130.225C244.75 130.481 244.092 130.61 243.343 130.61C242.547 130.61 241.853 130.448 241.259 130.124C240.665 129.793 240.173 129.355 239.782 128.809C239.39 128.262 239.097 127.655 238.901 126.987C238.706 126.32 238.608 125.642 238.608 124.954V124.073C238.608 123.035 238.713 122.016 238.922 121.018C239.131 120.019 239.492 119.116 240.004 118.306C240.524 117.497 241.242 116.852 242.159 116.374C243.077 115.895 244.247 115.655 245.67 115.655ZM262.979 115.675V116.728L256.878 130.407H254.905L260.996 117.213H253.023V115.675H262.979ZM277.718 126.421C277.718 127.318 277.509 128.08 277.09 128.707C276.679 129.328 276.119 129.8 275.411 130.124C274.709 130.448 273.917 130.61 273.033 130.61C272.149 130.61 271.354 130.448 270.645 130.124C269.937 129.8 269.377 129.328 268.966 128.707C268.554 128.08 268.348 127.318 268.348 126.421C268.348 125.834 268.46 125.298 268.682 124.812C268.912 124.32 269.232 123.891 269.644 123.527C270.062 123.163 270.554 122.883 271.121 122.687C271.694 122.485 272.325 122.384 273.013 122.384C273.917 122.384 274.723 122.559 275.431 122.91C276.139 123.254 276.696 123.729 277.101 124.336C277.512 124.944 277.718 125.638 277.718 126.421ZM275.836 126.38C275.836 125.834 275.718 125.352 275.482 124.933C275.246 124.508 274.915 124.178 274.49 123.942C274.065 123.706 273.573 123.588 273.013 123.588C272.439 123.588 271.944 123.706 271.526 123.942C271.114 124.178 270.794 124.508 270.564 124.933C270.335 125.352 270.22 125.834 270.22 126.38C270.22 126.947 270.332 127.433 270.554 127.837C270.784 128.235 271.107 128.542 271.526 128.758C271.95 128.967 272.453 129.072 273.033 129.072C273.613 129.072 274.112 128.967 274.531 128.758C274.949 128.542 275.269 128.235 275.492 127.837C275.721 127.433 275.836 126.947 275.836 126.38ZM277.374 119.51C277.374 120.225 277.185 120.869 276.807 121.443C276.429 122.016 275.913 122.468 275.259 122.798C274.605 123.129 273.863 123.294 273.033 123.294C272.19 123.294 271.438 123.129 270.777 122.798C270.122 122.468 269.61 122.016 269.239 121.443C268.868 120.869 268.682 120.225 268.682 119.51C268.682 118.653 268.868 117.925 269.239 117.325C269.617 116.724 270.133 116.266 270.787 115.949C271.441 115.632 272.187 115.473 273.023 115.473C273.866 115.473 274.615 115.632 275.269 115.949C275.923 116.266 276.436 116.724 276.807 117.325C277.185 117.925 277.374 118.653 277.374 119.51ZM275.502 119.541C275.502 119.048 275.397 118.613 275.188 118.235C274.979 117.858 274.689 117.561 274.318 117.345C273.947 117.122 273.515 117.011 273.023 117.011C272.531 117.011 272.099 117.116 271.728 117.325C271.364 117.527 271.077 117.817 270.868 118.195C270.665 118.573 270.564 119.021 270.564 119.541C270.564 120.046 270.665 120.488 270.868 120.866C271.077 121.244 271.367 121.537 271.738 121.746C272.109 121.955 272.541 122.06 273.033 122.06C273.525 122.06 273.954 121.955 274.318 121.746C274.689 121.537 274.979 121.244 275.188 120.866C275.397 120.488 275.502 120.046 275.502 119.541Z" fill="white"/>
<path d="M22.5041 154.362V155.485C22.5041 156.088 22.4501 156.598 22.3422 157.012C22.2343 157.427 22.0791 157.761 21.8768 158.014C21.6744 158.267 21.4299 158.451 21.1432 158.566C20.8599 158.677 20.5395 158.733 20.182 158.733C19.8987 158.733 19.6373 158.697 19.3979 158.626C19.1584 158.555 18.9426 158.442 18.7503 158.287C18.5615 158.129 18.3996 157.923 18.2647 157.67C18.1298 157.417 18.0269 157.11 17.9561 156.749C17.8852 156.389 17.8498 155.967 17.8498 155.485V154.362C17.8498 153.758 17.9038 153.252 18.0117 152.844C18.123 152.436 18.2798 152.109 18.4822 151.862C18.6846 151.613 18.9274 151.434 19.2107 151.326C19.4974 151.218 19.8178 151.164 20.1719 151.164C20.4586 151.164 20.7216 151.2 20.9611 151.271C21.2039 151.338 21.4198 151.448 21.6087 151.599C21.7975 151.748 21.9577 151.947 22.0893 152.196C22.2242 152.443 22.327 152.744 22.3979 153.102C22.4687 153.459 22.5041 153.879 22.5041 154.362ZM21.5631 155.636V154.205C21.5631 153.874 21.5429 153.584 21.5024 153.335C21.4653 153.082 21.4097 152.866 21.3355 152.687C21.2613 152.508 21.1668 152.363 21.0522 152.252C20.9409 152.141 20.811 152.06 20.6626 152.009C20.5176 151.955 20.354 151.928 20.1719 151.928C19.9493 151.928 19.752 151.97 19.58 152.055C19.408 152.136 19.263 152.265 19.1449 152.444C19.0303 152.623 18.9426 152.857 18.8819 153.147C18.8211 153.437 18.7908 153.79 18.7908 154.205V155.636C18.7908 155.967 18.8093 156.259 18.8464 156.512C18.8869 156.765 18.9459 156.984 19.0235 157.169C19.1011 157.351 19.1955 157.502 19.3068 157.62C19.4181 157.738 19.5463 157.825 19.6913 157.883C19.8397 157.937 20.0033 157.964 20.182 157.964C20.4114 157.964 20.612 157.92 20.784 157.832C20.956 157.744 21.0994 157.608 21.2141 157.422C21.3321 157.233 21.4198 156.992 21.4771 156.699C21.5345 156.402 21.5631 156.048 21.5631 155.636ZM26.784 151.225V158.631H25.8481V152.394L23.9611 153.082V152.237L26.6373 151.225H26.784ZM32.8953 151.265L29.8245 159.264H29.0201L32.096 151.265H32.8953ZM38.6423 157.862V158.631H33.8211V157.959L36.2342 155.272C36.531 154.942 36.7603 154.662 36.9222 154.432C37.0875 154.2 37.2022 153.992 37.2662 153.81C37.3337 153.625 37.3674 153.436 37.3674 153.244C37.3674 153.001 37.3168 152.781 37.2157 152.586C37.1179 152.387 36.9728 152.228 36.7806 152.11C36.5883 151.992 36.3556 151.933 36.0824 151.933C35.7553 151.933 35.4821 151.997 35.2629 152.125C35.047 152.25 34.8851 152.426 34.7772 152.652C34.6693 152.878 34.6153 153.137 34.6153 153.431H33.6794C33.6794 153.016 33.7705 152.636 33.9526 152.292C34.1347 151.948 34.4045 151.675 34.762 151.473C35.1195 151.267 35.5597 151.164 36.0824 151.164C36.5479 151.164 36.9458 151.247 37.2764 151.412C37.6069 151.574 37.8598 151.803 38.0352 152.1C38.214 152.394 38.3033 152.738 38.3033 153.132C38.3033 153.348 38.2662 153.567 38.192 153.79C38.1212 154.009 38.0217 154.228 37.8936 154.448C37.7688 154.667 37.6221 154.883 37.4534 155.095C37.2882 155.308 37.1111 155.517 36.9222 155.722L34.9492 157.862H38.6423ZM41.0099 154.488H41.6777C42.0048 154.488 42.2747 154.434 42.4871 154.326C42.703 154.215 42.8632 154.065 42.9677 153.876C43.0757 153.684 43.1296 153.468 43.1296 153.228C43.1296 152.945 43.0824 152.707 42.988 152.515C42.8935 152.323 42.7519 152.178 42.563 152.08C42.3741 151.982 42.1347 151.933 41.8446 151.933C41.5816 151.933 41.3489 151.986 41.1465 152.09C40.9475 152.191 40.7907 152.336 40.676 152.525C40.5647 152.714 40.5091 152.937 40.5091 153.193H39.5732C39.5732 152.819 39.6676 152.478 39.8565 152.171C40.0453 151.864 40.3101 151.62 40.6507 151.437C40.9947 151.255 41.3927 151.164 41.8446 151.164C42.2898 151.164 42.6794 151.244 43.0133 151.402C43.3472 151.557 43.6069 151.79 43.7924 152.1C43.9778 152.407 44.0706 152.79 44.0706 153.249C44.0706 153.434 44.0268 153.633 43.9391 153.846C43.8547 154.055 43.7215 154.25 43.5394 154.432C43.3607 154.615 43.1279 154.765 42.8413 154.883C42.5546 154.997 42.2106 155.055 41.8092 155.055H41.0099V154.488ZM41.0099 155.257V154.695H41.8092C42.278 154.695 42.6659 154.751 42.9728 154.862C43.2797 154.974 43.5209 155.122 43.6962 155.308C43.875 155.493 43.9998 155.697 44.0706 155.92C44.1448 156.139 44.1819 156.358 44.1819 156.577C44.1819 156.921 44.1229 157.227 44.0048 157.493C43.8902 157.76 43.7266 157.985 43.5141 158.171C43.305 158.356 43.0588 158.496 42.7755 158.591C42.4922 158.685 42.1836 158.733 41.8497 158.733C41.5293 158.733 41.2274 158.687 40.9441 158.596C40.6642 158.505 40.4163 158.373 40.2005 158.201C39.9846 158.026 39.816 157.812 39.6946 157.559C39.5732 157.303 39.5124 157.011 39.5124 156.684H40.4484C40.4484 156.94 40.504 157.164 40.6153 157.356C40.73 157.549 40.8919 157.699 41.101 157.807C41.3134 157.911 41.563 157.964 41.8497 157.964C42.1364 157.964 42.3826 157.915 42.5883 157.817C42.7974 157.716 42.9576 157.564 43.0689 157.362C43.1836 157.159 43.2409 156.905 43.2409 156.598C43.2409 156.291 43.1768 156.039 43.0487 155.844C42.9205 155.645 42.7384 155.498 42.5023 155.404C42.2696 155.306 41.9947 155.257 41.6777 155.257H41.0099Z" fill="white"/>
<path d="M98.1123 154.362V155.485C98.1123 156.088 98.0584 156.598 97.9505 157.012C97.8425 157.427 97.6874 157.761 97.485 158.014C97.2827 158.267 97.0381 158.451 96.7515 158.566C96.4682 158.677 96.1478 158.733 95.7903 158.733C95.507 158.733 95.2456 158.697 95.0061 158.626C94.7667 158.555 94.5508 158.442 94.3586 158.287C94.1697 158.129 94.0078 157.923 93.8729 157.67C93.738 157.417 93.6351 157.11 93.5643 156.749C93.4935 156.389 93.4581 155.967 93.4581 155.485V154.362C93.4581 153.758 93.512 153.252 93.62 152.844C93.7313 152.436 93.8881 152.109 94.0904 151.862C94.2928 151.613 94.5356 151.434 94.8189 151.326C95.1056 151.218 95.426 151.164 95.7801 151.164C96.0668 151.164 96.3299 151.2 96.5693 151.271C96.8122 151.338 97.028 151.448 97.2169 151.599C97.4058 151.748 97.566 151.947 97.6975 152.196C97.8324 152.443 97.9353 152.744 98.0061 153.102C98.0769 153.459 98.1123 153.879 98.1123 154.362ZM97.1714 155.636V154.205C97.1714 153.874 97.1511 153.584 97.1107 153.335C97.0736 153.082 97.0179 152.866 96.9437 152.687C96.8695 152.508 96.7751 152.363 96.6604 152.252C96.5491 152.141 96.4193 152.06 96.2709 152.009C96.1258 151.955 95.9623 151.928 95.7801 151.928C95.5575 151.928 95.3602 151.97 95.1882 152.055C95.0162 152.136 94.8712 152.265 94.7532 152.444C94.6385 152.623 94.5508 152.857 94.4901 153.147C94.4294 153.437 94.399 153.79 94.399 154.205V155.636C94.399 155.967 94.4176 156.259 94.4547 156.512C94.4952 156.765 94.5542 156.984 94.6318 157.169C94.7093 157.351 94.8038 157.502 94.9151 157.62C95.0264 157.738 95.1545 157.825 95.2995 157.883C95.4479 157.937 95.6115 157.964 95.7903 157.964C96.0196 157.964 96.2203 157.92 96.3923 157.832C96.5643 157.744 96.7076 157.608 96.8223 157.422C96.9403 157.233 97.028 156.992 97.0854 156.699C97.1427 156.402 97.1714 156.048 97.1714 155.636ZM100.682 154.488H101.35C101.677 154.488 101.947 154.434 102.16 154.326C102.375 154.215 102.536 154.065 102.64 153.876C102.748 153.684 102.802 153.468 102.802 153.228C102.802 152.945 102.755 152.707 102.66 152.515C102.566 152.323 102.424 152.178 102.235 152.08C102.047 151.982 101.807 151.933 101.517 151.933C101.254 151.933 101.021 151.986 100.819 152.09C100.62 152.191 100.463 152.336 100.348 152.525C100.237 152.714 100.181 152.937 100.181 153.193H99.2456C99.2456 152.819 99.34 152.478 99.5289 152.171C99.7177 151.864 99.9825 151.62 100.323 151.437C100.667 151.255 101.065 151.164 101.517 151.164C101.962 151.164 102.352 151.244 102.686 151.402C103.02 151.557 103.279 151.79 103.465 152.1C103.65 152.407 103.743 152.79 103.743 153.249C103.743 153.434 103.699 153.633 103.611 153.846C103.527 154.055 103.394 154.25 103.212 154.432C103.033 154.615 102.8 154.765 102.514 154.883C102.227 154.997 101.883 155.055 101.482 155.055H100.682V154.488ZM100.682 155.257V154.695H101.482C101.95 154.695 102.338 154.751 102.645 154.862C102.952 154.974 103.193 155.122 103.369 155.308C103.547 155.493 103.672 155.697 103.743 155.92C103.817 156.139 103.854 156.358 103.854 156.577C103.854 156.921 103.795 157.227 103.677 157.493C103.563 157.76 103.399 157.985 103.187 158.171C102.977 158.356 102.731 158.496 102.448 158.591C102.165 158.685 101.856 158.733 101.522 158.733C101.202 158.733 100.9 158.687 100.617 158.596C100.337 158.505 100.089 158.373 99.8729 158.201C99.657 158.026 99.4884 157.812 99.367 157.559C99.2456 157.303 99.1849 157.011 99.1849 156.684H100.121C100.121 156.94 100.176 157.164 100.288 157.356C100.402 157.549 100.564 157.699 100.773 157.807C100.986 157.911 101.235 157.964 101.522 157.964C101.809 157.964 102.055 157.915 102.261 157.817C102.47 157.716 102.63 157.564 102.741 157.362C102.856 157.159 102.913 156.905 102.913 156.598C102.913 156.291 102.849 156.039 102.721 155.844C102.593 155.645 102.411 155.498 102.175 155.404C101.942 155.306 101.667 155.257 101.35 155.257H100.682ZM108.504 151.265L105.433 159.264H104.628L107.704 151.265H108.504ZM114.251 157.862V158.631H109.429V157.959L111.842 155.272C112.139 154.942 112.369 154.662 112.53 154.432C112.696 154.2 112.81 153.992 112.874 153.81C112.942 153.625 112.976 153.436 112.976 153.244C112.976 153.001 112.925 152.781 112.824 152.586C112.726 152.387 112.581 152.228 112.389 152.11C112.197 151.992 111.964 151.933 111.691 151.933C111.364 151.933 111.09 151.997 110.871 152.125C110.655 152.25 110.493 152.426 110.385 152.652C110.278 152.878 110.224 153.137 110.224 153.431H109.288C109.288 153.016 109.379 152.636 109.561 152.292C109.743 151.948 110.013 151.675 110.37 151.473C110.728 151.267 111.168 151.164 111.691 151.164C112.156 151.164 112.554 151.247 112.885 151.412C113.215 151.574 113.468 151.803 113.643 152.1C113.822 152.394 113.912 152.738 113.912 153.132C113.912 153.348 113.874 153.567 113.8 153.79C113.729 154.009 113.63 154.228 113.502 154.448C113.377 154.667 113.23 154.883 113.062 155.095C112.896 155.308 112.719 155.517 112.53 155.722L110.557 157.862H114.251ZM120.013 151.265V151.792L116.962 158.631H115.976L119.021 152.034H115.035V151.265H120.013Z" fill="white"/>
<path d="M24.0673 183.341H25.7537C25.6997 183.984 25.5198 184.558 25.214 185.061C24.9082 185.561 24.4788 185.954 23.9257 186.242C23.3726 186.53 22.7003 186.673 21.9088 186.673C21.3017 186.673 20.7554 186.566 20.2697 186.35C19.784 186.129 19.3681 185.819 19.0218 185.419C18.6756 185.014 18.4102 184.526 18.2259 183.955C18.046 183.384 17.9561 182.745 17.9561 182.039V181.223C17.9561 180.517 18.0482 179.879 18.2326 179.308C18.4215 178.736 18.6913 178.249 19.0421 177.844C19.3928 177.435 19.8133 177.122 20.3034 176.906C20.7981 176.69 21.3535 176.582 21.9695 176.582C22.752 176.582 23.413 176.726 23.9527 177.014C24.4923 177.302 24.9105 177.7 25.2073 178.208C25.5086 178.716 25.693 179.299 25.7604 179.955H24.0741C24.0291 179.532 23.9302 179.17 23.7773 178.869C23.6289 178.568 23.4085 178.339 23.1162 178.181C22.8239 178.019 22.4417 177.938 21.9695 177.938C21.5828 177.938 21.2455 178.01 20.9577 178.154C20.6699 178.298 20.4293 178.509 20.236 178.788C20.0426 179.067 19.8965 179.411 19.7975 179.82C19.7031 180.225 19.6559 180.688 19.6559 181.21V182.039C19.6559 182.534 19.6986 182.984 19.784 183.389C19.874 183.789 20.0089 184.133 20.1888 184.421C20.3731 184.708 20.607 184.931 20.8903 185.088C21.1736 185.246 21.5131 185.324 21.9088 185.324C22.39 185.324 22.779 185.248 23.0758 185.095C23.3771 184.942 23.6041 184.72 23.757 184.427C23.9144 184.13 24.0179 183.768 24.0673 183.341ZM31.1162 178.026L28.182 186.539H26.408L30.1044 176.717H31.2376L31.1162 178.026ZM33.5715 186.539L30.6305 178.026L30.5024 176.717H31.6423L35.3523 186.539H33.5715ZM33.4298 182.896V184.238H28.0875V182.896H33.4298ZM36.4518 176.717H39.9256C40.6721 176.717 41.3084 176.83 41.8345 177.055C42.3607 177.279 42.7631 177.612 43.0419 178.053C43.3252 178.489 43.4669 179.029 43.4669 179.672C43.4669 180.162 43.377 180.594 43.1971 180.967C43.0172 181.34 42.7631 181.655 42.4349 181.911C42.1066 182.163 41.7154 182.359 41.2612 182.498L40.7485 182.748H37.6254L37.6119 181.405H39.9526C40.3573 181.405 40.6946 181.333 40.9644 181.19C41.2342 181.046 41.4365 180.85 41.5715 180.603C41.7109 180.351 41.7806 180.068 41.7806 179.753C41.7806 179.411 41.7131 179.114 41.5782 178.862C41.4478 178.606 41.2454 178.41 40.9711 178.276C40.6968 178.136 40.3483 178.066 39.9256 178.066H38.1448V186.539H36.4518V176.717ZM42.0571 186.539L39.7502 182.127L41.5242 182.12L43.8649 186.451V186.539H42.0571ZM48.0065 186.539H45.9087L45.9222 185.196H48.0065C48.6136 185.196 49.1217 185.064 49.5309 184.798C49.9447 184.533 50.2549 184.153 50.4618 183.658C50.6732 183.164 50.7788 182.575 50.7788 181.891V181.358C50.7788 180.828 50.7181 180.358 50.5967 179.948C50.4798 179.539 50.3044 179.195 50.0706 178.916C49.8412 178.638 49.5579 178.426 49.2207 178.282C48.8879 178.138 48.5034 178.066 48.0672 178.066H45.8682V176.717H48.0672C48.7193 176.717 49.3151 176.828 49.8547 177.048C50.3943 177.264 50.8598 177.576 51.251 177.985C51.6467 178.395 51.9503 178.885 52.1616 179.456C52.373 180.027 52.4787 180.666 52.4787 181.372V181.891C52.4787 182.597 52.373 183.236 52.1616 183.807C51.9503 184.378 51.6467 184.868 51.251 185.277C50.8553 185.682 50.3831 185.994 49.8345 186.215C49.2904 186.431 48.681 186.539 48.0065 186.539ZM46.8463 176.717V186.539H45.1532V176.717H46.8463ZM60.6675 180.819V182.161H55.4533V180.819H60.6675ZM55.8716 176.717V186.539H54.1785V176.717H55.8716ZM61.9693 176.717V186.539H60.283V176.717H61.9693ZM71.8175 181.358V181.898C71.8175 182.64 71.7208 183.305 71.5275 183.894C71.3341 184.483 71.0575 184.985 70.6978 185.399C70.3425 185.812 69.9153 186.129 69.4162 186.35C68.917 186.566 68.3639 186.673 67.7568 186.673C67.1542 186.673 66.6034 186.566 66.1042 186.35C65.6096 186.129 65.1801 185.812 64.8159 185.399C64.4516 184.985 64.1683 184.483 63.9659 183.894C63.7681 183.305 63.6692 182.64 63.6692 181.898V181.358C63.6692 180.616 63.7681 179.953 63.9659 179.368C64.1638 178.779 64.4426 178.278 64.8024 177.864C65.1666 177.446 65.5961 177.129 66.0907 176.913C66.5899 176.693 67.1407 176.582 67.7433 176.582C68.3504 176.582 68.9035 176.693 69.4027 176.913C69.9018 177.129 70.3313 177.446 70.691 177.864C71.0508 178.278 71.3273 178.779 71.5207 179.368C71.7186 179.953 71.8175 180.616 71.8175 181.358ZM70.1244 181.898V181.345C70.1244 180.796 70.0705 180.313 69.9625 179.894C69.8591 179.472 69.704 179.119 69.4971 178.835C69.2948 178.548 69.0452 178.332 68.7484 178.188C68.4516 178.039 68.1166 177.965 67.7433 177.965C67.3701 177.965 67.0373 178.039 66.745 178.188C66.4527 178.332 66.2031 178.548 65.9963 178.835C65.7939 179.119 65.6388 179.472 65.5309 179.894C65.4229 180.313 65.369 180.796 65.369 181.345V181.898C65.369 182.446 65.4229 182.932 65.5309 183.355C65.6388 183.777 65.7962 184.135 66.003 184.427C66.2144 184.715 66.4662 184.933 66.7585 185.082C67.0508 185.225 67.3836 185.297 67.7568 185.297C68.1346 185.297 68.4696 185.225 68.7619 185.082C69.0542 184.933 69.3015 184.715 69.5039 184.427C69.7062 184.135 69.8591 183.777 69.9625 183.355C70.0705 182.932 70.1244 182.446 70.1244 181.898ZM79.6623 185.196V186.539H74.7315V185.196H79.6623ZM75.2037 176.717V186.539H73.5106V176.717H75.2037ZM83.8242 186.539H81.7264L81.7399 185.196H83.8242C84.4313 185.196 84.9394 185.064 85.3486 184.798C85.7624 184.533 86.0726 184.153 86.2795 183.658C86.4908 183.164 86.5965 182.575 86.5965 181.891V181.358C86.5965 180.828 86.5358 180.358 86.4144 179.948C86.2975 179.539 86.1221 179.195 85.8883 178.916C85.6589 178.638 85.3756 178.426 85.0384 178.282C84.7056 178.138 84.3211 178.066 83.8849 178.066H81.6859V176.717H83.8849C84.5369 176.717 85.1328 176.828 85.6724 177.048C86.212 177.264 86.6775 177.576 87.0687 177.985C87.4644 178.395 87.768 178.885 87.9793 179.456C88.1907 180.027 88.2963 180.666 88.2963 181.372V181.891C88.2963 182.597 88.1907 183.236 87.9793 183.807C87.768 184.378 87.4644 184.868 87.0687 185.277C86.673 185.682 86.2008 185.994 85.6522 186.215C85.1081 186.431 84.4987 186.539 83.8242 186.539ZM82.664 176.717V186.539H80.9709V176.717H82.664ZM96.4245 185.196V186.539H91.2103V185.196H96.4245ZM91.6892 176.717V186.539H89.9962V176.717H91.6892ZM95.7432 180.819V182.141H91.2103V180.819H95.7432ZM96.3907 176.717V178.066H91.2103V176.717H96.3907ZM97.8073 176.717H101.281C102.028 176.717 102.664 176.83 103.19 177.055C103.716 177.279 104.119 177.612 104.397 178.053C104.681 178.489 104.822 179.029 104.822 179.672C104.822 180.162 104.732 180.594 104.553 180.967C104.373 181.34 104.119 181.655 103.79 181.911C103.462 182.163 103.071 182.359 102.617 182.498L102.104 182.748H98.9809L98.9675 181.405H101.308C101.713 181.405 102.05 181.333 102.32 181.19C102.59 181.046 102.792 180.85 102.927 180.603C103.066 180.351 103.136 180.068 103.136 179.753C103.136 179.411 103.069 179.114 102.934 178.862C102.803 178.606 102.601 178.41 102.327 178.276C102.052 178.136 101.704 178.066 101.281 178.066H99.5003V186.539H97.8073V176.717ZM103.413 186.539L101.106 182.127L102.88 182.12L105.22 186.451V186.539H103.413ZM117.74 176.717V186.539H116.047L111.642 179.503V186.539H109.949V176.717H111.642L116.06 183.766V176.717H117.74ZM123.703 178.026L120.768 186.539H118.994L122.691 176.717H123.824L123.703 178.026ZM126.158 186.539L123.217 178.026L123.089 176.717H124.229L127.939 186.539H126.158ZM126.016 182.896V184.238H120.674V182.896H126.016ZM129.726 176.717H131.237L134.077 184.292L136.91 176.717H138.421L134.67 186.539H133.47L129.726 176.717ZM129.038 176.717H130.475L130.724 183.274V186.539H129.038V176.717ZM137.672 176.717H139.116V186.539H137.423V183.274L137.672 176.717ZM147.554 185.196V186.539H142.34V185.196H147.554ZM142.819 176.717V186.539H141.126V176.717H142.819ZM146.873 180.819V182.141H142.34V180.819H146.873ZM147.52 176.717V178.066H142.34V176.717H147.52Z" fill="white"/>
<g clip-path="url(#clip3_130_2849)">
<path d="M302.181 169.585C302.181 176.739 296.386 182.535 289.235 182.535C282.084 182.535 276.289 176.737 276.289 169.585C276.289 162.433 282.085 156.635 289.235 156.635C296.384 156.635 302.181 162.433 302.181 169.585Z" fill="#E2574C"/>
<path d="M304.782 156.635C301.879 156.635 299.206 157.603 297.046 159.218L297.056 159.219C297.481 159.629 297.95 159.918 298.311 160.391L295.618 160.433C295.196 160.86 294.811 161.323 294.448 161.805H299.198C299.56 162.239 299.894 162.616 300.197 163.095H293.587C293.345 163.512 293.121 163.94 292.925 164.386H300.949C301.159 164.83 301.347 165.165 301.506 165.635H292.45C292.306 166.082 292.183 166.539 292.09 167.005H301.885C301.981 167.454 302.055 167.868 302.106 168.29H291.896C291.853 168.716 291.831 169.149 291.831 169.585H302.179C302.179 170.044 302.147 170.468 302.1 170.88H291.896C291.94 171.319 292.005 171.75 292.09 172.175H301.87C301.769 172.595 301.652 173.017 301.506 173.455H292.42C292.558 173.898 292.725 174.327 292.907 174.747H300.949C300.727 175.218 300.474 175.595 300.196 176.037H293.564C293.826 176.49 294.114 176.923 294.428 177.337L299.198 177.408C298.792 177.896 298.27 178.19 297.795 178.618C297.82 178.638 297.034 178.615 295.487 178.591C297.841 181.02 301.132 182.535 304.782 182.535C311.934 182.535 317.732 176.737 317.732 169.585C317.732 162.433 311.936 156.635 304.782 156.635Z" fill="#F4B459"/>
</g>
</g>
<defs>
<clipPath id="clip0_130_2849">
<rect width="335" height="209.807" rx="10.3608" fill="white"/>
</clipPath>
<clipPath id="clip1_130_2849">
<rect width="36.2005" height="36.2005" fill="white" transform="translate(17.268 62.9824)"/>
</clipPath>
<clipPath id="clip2_130_2849">
<rect width="21.7203" height="21.7203" fill="white" transform="translate(296.012 70.2227)"/>
</clipPath>
<clipPath id="clip3_130_2849">
<rect width="41.4433" height="41.4433" fill="white" transform="translate(276.289 148.863)"/>
</clipPath>
</defs>
</svg>
