<svg width="24" height="24" viewBox="0 0 24 24" fill="none" xmlns="http://www.w3.org/2000/svg">
<path d="M12 17C15.866 17 19 13.866 19 10C19 6.13401 15.866 3 12 3C8.13401 3 5 6.13401 5 10C5 13.866 8.13401 17 12 17Z" stroke="#FEFEFE" stroke-width="1.5" stroke-linecap="round" stroke-linejoin="round"/>
<path d="M12 13C14.2091 13 16 11.6569 16 10C16 8.34315 14.2091 7 12 7C9.79086 7 8 8.34315 8 10C8 11.6569 9.79086 13 12 13Z" stroke="#FEFEFE" stroke-width="1.5" stroke-linecap="round" stroke-linejoin="round"/>
<path d="M5 13C3.34315 13 2 11.6569 2 10C2 8.34315 2 7 5 7" stroke="#FEFEFE" stroke-width="1.5" stroke-linecap="round" stroke-linejoin="round"/>
<path d="M19 13C20.6569 13 22 11.6569 22 10C22 8.34315 22 7 19 7" stroke="#FEFEFE" stroke-width="1.5" stroke-linecap="round" stroke-linejoin="round"/>
<path d="M20.5 7V3" stroke="#FEFEFE" stroke-width="1.5" stroke-linecap="round"/>
<path d="M18 21C18.5523 21 19 20.5523 19 20C19 18.3431 17.6569 17 16 17H8C6.34315 17 5 18.3431 5 20C5 20.5523 5.44772 21 6 21H18Z" stroke="#FEFEFE" stroke-width="1.5" stroke-linecap="round" stroke-linejoin="round"/>
</svg>
