<svg width="24" height="24" viewBox="0 0 24 24" fill="none" xmlns="http://www.w3.org/2000/svg">
<path d="M17 21C17.9299 21 18.3949 21 18.7764 20.8978C19.8117 20.6204 20.6203 19.8117 20.8977 18.7765C21 18.395 21 17.93 21 17L21 7C21 6.07 21 5.605 20.8978 5.2235C20.6204 4.1883 19.8117 3.3796 18.7764 3.1022C18.3949 3 17.9299 3 17 3" stroke="#DF2421" stroke-width="1.5" stroke-linecap="round" stroke-linejoin="round"/>
<path d="M7.4999 7.5C7.4999 7.5 3 10.8142 3 12C3 13.1859 7.5 16.5 7.5 16.5M4 12L16 12" stroke="#DF2421" stroke-width="1.5" stroke-linecap="round" stroke-linejoin="round"/>
</svg>
