<svg width="186" height="180" viewBox="0 0 186 180" fill="none" xmlns="http://www.w3.org/2000/svg">
<circle cx="95.4668" cy="90.5" r="70.5" fill="#9726F2"/>
<circle cx="178.433" cy="27.5" r="7.5" fill="#9726F2"/>
<circle cx="20" cy="10" r="10" fill="#9726F2"/>
<circle cx="10" cy="133" r="5" fill="#9726F2"/>
<circle cx="165.5" cy="160.5" r="2.5" fill="#9726F2"/>
<path d="M106.137 65.9164C114.47 65.9166 120.051 71.7678 120.051 80.4701V100.557C120.051 109.232 114.47 115.083 106.137 115.083H84.8224C76.4889 115.083 70.884 109.232 70.8839 100.557V80.4701C70.8839 71.7677 76.4888 65.9165 84.8224 65.9164H106.137ZM105.743 83.1244C104.907 82.2886 103.53 82.2886 102.694 83.1244L92.5421 93.2777L88.2394 88.976C87.4035 88.1401 86.0274 88.1401 85.1915 88.976C84.3558 89.8118 84.3557 91.1635 85.1915 92.0238L91.0421 97.85C91.46 98.2679 92.0013 98.4643 92.5421 98.4643C93.1074 98.4642 93.6477 98.2677 94.0656 97.85L105.743 86.1732C106.579 85.3374 106.579 83.9848 105.743 83.1244Z" fill="#FEFEFE"/>
<circle cx="106.5" cy="4.5" r="2.5" fill="#9726F2"/>
<circle cx="62.5" cy="176.5" r="3.5" fill="#9726F2"/>
<circle cx="122" cy="171" r="1" fill="#9726F2"/>
<circle cx="170.5" cy="110.5" r="2.5" fill="#9726F2"/>
<circle cx="1" cy="75" r="1" fill="#9726F2"/>
</svg>
