<svg width="24" height="24" viewBox="0 0 24 24" fill="none" xmlns="http://www.w3.org/2000/svg">
<g clip-path="url(#clip0_55_1438)">
<path d="M12 0C11.7432 0 11.4882 0.0080625 11.2354 0.0239531L1.24467 6.67205C0.447937 8.27733 0 10.0864 0 12C0 15.5098 1.5068 18.6677 3.90886 20.862C3.90886 20.862 7.81964 23.552 12 23.552C17.5934 23.552 23.4118 18.6274 23.4118 12C23.4118 4.14192 15.9352 0.660141 15.9352 0.660141C14.7025 0.232406 13.3784 0 12 0Z" fill="#008CDF"/>
<path d="M23.8824 10.3142L20.9733 9.98218C20.9733 16.6096 15.6007 21.9822 8.97328 21.9822C7.1633 21.9822 5.44777 21.5796 3.90881 20.862C4.8405 21.7131 5.90691 22.4193 7.07231 22.9448L7.77891 22.9054L8.67492 23.5332C9.73078 23.837 10.8464 24 12 24C18.6274 24 24 18.6274 24 12C24 11.4278 23.9599 10.865 23.8824 10.3142Z" fill="#0069D0"/>
<path d="M17.0771 1.12356C16.7065 0.950312 16.3254 0.795437 15.9353 0.660156L14.874 1.59353C14.7314 1.71546 14.6379 1.88501 14.611 2.07067C14.5841 2.25632 14.6255 2.44544 14.7276 2.60284C14.9331 2.92206 15.3487 3.03344 15.6984 2.88573L15.9132 2.79498C16.1769 2.68361 16.4859 2.72392 16.6998 2.91438C17.0777 3.25103 17.0118 3.84602 16.5878 4.09694L14.0955 5.57167C13.6087 5.85972 13.2995 6.38336 13.3096 6.94891C13.3201 7.53634 13.6493 8.0148 14.3108 8.07574C15.6796 8.20183 15.4826 6.75152 16.2866 6.75152H19.0441C19.4638 6.75152 19.8278 7.06534 19.8641 7.48352C19.9056 7.95995 19.5311 8.35947 19.0633 8.35947H15.7567C14.4706 8.35947 13.3491 9.35055 13.3104 10.6361C13.2705 11.9663 14.337 13.0572 15.6582 13.0572H15.9945C16.6358 13.0572 17.1558 13.5771 17.1558 14.2185V18.3453C17.1558 18.4678 17.1773 18.5886 17.2178 18.7013L18.1889 18.6804L21.2127 13.763L21.6013 10.9448L22.5871 9.51747C22.5871 9.51752 20.6815 2.80839 17.0771 1.12356Z" fill="#98DB7C"/>
<path d="M23.8824 10.3142C23.3095 6.23446 20.6763 2.80986 17.0771 1.12354C19.469 3.31719 20.9733 6.48088 20.9733 9.98216C20.9733 13.4185 19.5326 16.5136 17.2178 18.7012C17.3597 19.1067 17.7621 19.3881 18.2297 19.3213C18.5279 19.2787 18.7812 19.0781 18.9298 18.816L21.7938 13.7659C21.9193 13.5446 22 13.3006 22.0311 13.0481C22.0623 12.7955 22.0433 12.5393 21.9753 12.294L21.7533 11.4931C21.6803 11.2299 21.8955 10.9759 22.1671 11.0047L22.3251 11.0215C22.5354 11.0438 22.748 11.0224 22.9497 10.9587C23.1513 10.895 23.3376 10.7903 23.4969 10.6512L23.8824 10.3142Z" fill="#77CC7D"/>
<path d="M11.888 1.06089L11.2354 0.0239258C6.84618 0.29927 3.10011 2.93144 1.24466 6.67202L2.00085 11.896C2.04273 12.1854 2.14965 12.4615 2.31357 12.7037C2.4775 12.9459 2.69416 13.1478 2.9473 13.2942C3.09019 13.3768 3.19926 13.5073 3.2552 13.6627C3.31114 13.818 3.31035 13.988 3.25297 14.1428L2.99478 14.8393C2.88153 15.1449 2.86755 15.4784 2.95485 15.7923C3.04216 16.1063 3.22628 16.3847 3.48102 16.5879L4.1705 17.1379C4.40636 17.3261 4.59495 17.5668 4.72124 17.8408L6.51285 21.7286L7.56003 22.4676L8.29949 21.9634L8.03132 20.8428C7.88005 20.2106 7.96109 19.5451 8.25964 18.9677L9.42252 16.7187C9.74282 16.0993 9.44882 15.3393 8.795 15.0966L7.83964 14.7421C7.69148 14.6871 7.56369 14.5881 7.47345 14.4583C7.38321 14.3286 7.33484 14.1743 7.33485 14.0163V13.9417C7.33485 13.5141 6.98821 13.1675 6.56066 13.1675H4.89983C4.49283 13.1675 4.09298 13.0606 3.74033 12.8574L3.33519 12.624C3.18331 12.5365 3.05327 12.4156 2.9549 12.2706C2.85653 12.1255 2.79238 11.9599 2.7673 11.7865L2.74143 11.6074C2.70954 11.3868 2.7418 11.1617 2.83435 10.959C2.9269 10.7562 3.07584 10.5844 3.26338 10.464L3.50146 10.3111C3.6419 10.221 3.80771 10.1786 3.97419 10.1903C4.14067 10.2021 4.2989 10.2673 4.42532 10.3762L4.63752 10.5592C4.89589 10.7819 5.2985 10.6499 5.37482 10.3174L5.60113 9.33128C5.66044 9.07291 5.78508 8.8341 5.96313 8.6377C6.14117 8.4413 6.36666 8.2939 6.61799 8.20961L8.28824 7.64946C8.76524 7.48947 8.96535 6.92421 8.69525 6.4998L7.93597 5.30669C7.72733 4.97885 7.30799 4.85646 6.95572 5.02061L6.32867 5.31288C6.00435 5.4641 5.60024 5.39927 5.38133 5.11619C5.09891 4.75103 5.21239 4.22641 5.61083 4.00769L7.18672 3.14247C7.70947 2.85546 8.36464 3.01103 8.70252 3.50243L8.84896 3.71538C8.95563 3.87061 9.09848 3.99754 9.26516 4.08524C9.43185 4.17293 9.61737 4.21874 9.80572 4.21872H10.5148C10.7447 4.21872 10.9694 4.15051 11.1605 4.02272C11.3515 3.89494 11.5004 3.71332 11.5881 3.50088L12.0102 2.47943C12.1048 2.25045 12.143 2.00212 12.1218 1.75528C12.1005 1.50845 12.0203 1.27032 11.888 1.06089Z" fill="#98DB7C"/>
<path d="M7.07232 22.9448C7.59173 23.1791 8.12729 23.3757 8.67488 23.5332L8.29941 21.9634C7.69881 21.9303 7.10158 21.8518 6.51282 21.7286L7.07232 22.9448Z" fill="#77CC7D"/>
</g>
<defs>
<clipPath id="clip0_55_1438">
<rect width="24" height="24" fill="white"/>
</clipPath>
</defs>
</svg>
