<svg width="24" height="24" viewBox="0 0 24 24" fill="none" xmlns="http://www.w3.org/2000/svg">
<path fill-rule="evenodd" clip-rule="evenodd" d="M9.79454 11.687H10.357C10.642 11.687 10.8736 11.9185 10.8736 12.2026V15.998C11.1511 16.0585 11.4422 16.0909 11.7389 16.0909C12.0356 16.0909 12.3267 16.0585 12.6042 15.998V12.2026C12.6042 11.9185 12.8358 11.687 13.1208 11.687H13.6833L11.7389 9.40039L9.79454 11.687Z" fill="#2579BC"/>
<path fill-rule="evenodd" clip-rule="evenodd" d="M7.11141 12.0254C7.11141 9.47349 9.18797 7.39739 11.7394 7.39739C14.2908 7.39739 16.3674 9.47349 16.3674 12.0254C16.3674 14.5772 14.2908 16.6533 11.7394 16.6533C9.18797 16.6533 7.11141 14.5772 7.11141 12.0254ZM17.6438 13.4855L19.0294 13.1879C19.0828 13.1766 19.1175 13.134 19.1175 13.08V10.9707C19.1175 10.9163 19.0809 10.8741 19.0294 10.8629L17.6438 10.5652C17.4103 10.5146 17.2303 10.3561 17.1502 10.1297C17.0813 9.93052 16.9988 9.73224 16.905 9.54052C16.8019 9.32442 16.8169 9.08442 16.9472 8.88286L17.7164 7.69271C17.745 7.64677 17.7394 7.59286 17.7009 7.55442L16.2099 6.06286C16.1714 6.02442 16.1161 6.0188 16.072 6.04833L14.8814 6.81755C14.6803 6.94786 14.4394 6.96286 14.2228 6.8588C14.0316 6.76646 13.8323 6.68396 13.6331 6.61411C13.4072 6.53489 13.2483 6.35489 13.1986 6.12052L12.9 4.73536C12.8883 4.68192 12.8466 4.64771 12.7927 4.64771H10.6833C10.6298 4.64771 10.5858 4.68192 10.5759 4.73489L10.2774 6.12052C10.2277 6.35489 10.0688 6.53489 9.84282 6.61411C9.64173 6.68396 9.44485 6.76646 9.25313 6.8588C9.03704 6.96286 8.79563 6.94786 8.59454 6.81755L7.40391 6.04833C7.35798 6.0188 7.30454 6.02442 7.2661 6.06286L5.77501 7.55442C5.73657 7.59286 5.73094 7.64677 5.75954 7.69271L6.52876 8.88286C6.65907 9.08442 6.67407 9.32442 6.57094 9.54052C6.47719 9.73177 6.39469 9.93005 6.32579 10.1297C6.24516 10.3561 6.06563 10.5146 5.83219 10.5652L4.44657 10.8629C4.39313 10.8741 4.35844 10.9163 4.35844 10.9707V13.08C4.35844 13.134 4.39313 13.1766 4.44657 13.1879L5.83219 13.4855C6.06563 13.5357 6.24563 13.6946 6.32579 13.921C6.39469 14.1202 6.47719 14.3185 6.57094 14.5102C6.67407 14.7263 6.65907 14.9663 6.52876 15.1679L5.75954 16.358C5.73094 16.404 5.73657 16.4579 5.77501 16.4963L7.2661 17.9879C7.30454 18.0263 7.35798 18.0319 7.40391 18.0024L8.59454 17.2332C8.70751 17.16 8.83173 17.123 8.95829 17.123C9.05766 17.123 9.15751 17.146 9.25313 17.1919C9.44438 17.2843 9.64173 17.3668 9.84282 17.4366C10.0688 17.5158 10.2277 17.6958 10.2774 17.9302L10.5759 19.3154C10.5853 19.3688 10.6294 19.403 10.6833 19.403H12.7927C12.8461 19.403 12.8883 19.3683 12.9 19.3154L13.1986 17.9302C13.2483 17.6958 13.4072 17.5158 13.6331 17.4366C13.8342 17.3663 14.0311 17.2843 14.2228 17.1919C14.4389 17.0879 14.6803 17.1029 14.8814 17.2332L16.072 18.0024C16.118 18.0319 16.1714 18.0263 16.2099 17.9879L17.7009 16.4963C17.7394 16.4579 17.745 16.4035 17.7164 16.358L16.9472 15.1679C16.8169 14.9663 16.8019 14.7263 16.905 14.5102C16.9988 14.319 17.0813 14.1207 17.1502 13.921C17.2303 13.6946 17.4103 13.5357 17.6438 13.4855Z" fill="#20517D"/>
<path fill-rule="evenodd" clip-rule="evenodd" d="M3.16641 17.9246C1.96641 16.1855 1.33266 14.1455 1.33266 12.0253C1.33266 6.28738 6.00094 1.61957 11.7389 1.61957C13.6491 1.61957 15.4941 2.13426 17.1131 3.11301L15.5128 3.54144C15.3638 3.58176 15.2756 3.73597 15.3136 3.88597C15.3483 4.0116 15.4627 4.09457 15.5855 4.09457C15.6103 4.09457 15.6352 4.09129 15.6581 4.08472L17.8706 3.49222C18.0197 3.45191 18.1097 3.29769 18.068 3.14769L17.4764 0.937068C17.4669 0.901354 17.4504 0.867866 17.4279 0.838521C17.4055 0.809175 17.3774 0.784547 17.3454 0.766045C17.3134 0.747543 17.2781 0.735529 17.2415 0.730691C17.2048 0.725853 17.1676 0.728286 17.1319 0.73785C16.9828 0.778162 16.8928 0.932381 16.9327 1.08238L17.3386 2.59269C15.6464 1.58629 13.7269 1.05707 11.7384 1.05707C8.80829 1.05707 6.05391 2.19801 3.98298 4.26941C1.91016 6.34129 0.769226 9.09566 0.769226 12.0253C0.769226 14.2603 1.43719 16.4105 2.70235 18.2438C2.75579 18.323 2.84391 18.3657 2.93391 18.3657C2.98923 18.3657 3.04501 18.3493 3.09282 18.316C3.12346 18.2952 3.14968 18.2686 3.16998 18.2376C3.19028 18.2066 3.20426 18.172 3.2111 18.1356C3.21794 18.0992 3.21751 18.0618 3.20984 18.0256C3.20217 17.9894 3.18741 17.9551 3.16641 17.9246ZM7.81923 19.966L5.60673 20.5585C5.45766 20.5988 5.36766 20.753 5.40751 20.903L6.00095 23.1136C6.03329 23.2393 6.14813 23.3222 6.27282 23.3222C6.29579 23.3222 6.32063 23.3189 6.34548 23.3128C6.49454 23.2725 6.58454 23.1183 6.54469 22.9683L6.13876 21.458C7.83095 22.4644 9.75048 22.9936 11.7389 22.9936C14.6691 22.9936 17.4234 21.8527 19.4944 19.7813C21.5653 17.7094 22.7081 14.955 22.7081 12.0253C22.7081 9.79035 22.0402 7.64019 20.775 5.80691C20.6869 5.67894 20.5111 5.6466 20.3845 5.73472C20.354 5.75563 20.328 5.78234 20.3078 5.81334C20.2876 5.84433 20.2738 5.879 20.267 5.91536C20.2603 5.95171 20.2608 5.98904 20.2685 6.02521C20.2762 6.06138 20.2909 6.09567 20.3119 6.12613C21.5119 7.86519 22.1456 9.90472 22.1456 12.0253C22.1456 17.7633 17.4774 22.4311 11.7394 22.4311C9.82923 22.4311 7.98423 21.9164 6.36469 20.9377L7.96266 20.5093C8.11407 20.4689 8.20173 20.3147 8.16376 20.1647C8.12157 20.0147 7.96876 19.9257 7.81923 19.966Z" fill="#2579BC"/>
</svg>
